<svg id="visual" viewBox="0 0 900 600" width="900" height="600" xmlns="http://www.w3.org/2000/svg" xmlns:xlink="http://www.w3.org/1999/xlink" version="1.1"><rect x="0" y="0" width="900" height="600" fill="#46467a"></rect><path d="M192 600L210 600L210 565L155 565L155 529L219 529L219 494L188 494L188 459L161 459L161 424L206 424L206 388L171 388L171 353L158 353L158 318L133 318L133 282L136 282L136 247L228 247L228 212L194 212L194 176L165 176L165 141L216 141L216 106L206 106L206 71L190 71L190 35L225 35L225 0L900 0L900 35L900 35L900 71L900 71L900 106L900 106L900 141L900 141L900 176L900 176L900 212L900 212L900 247L900 247L900 282L900 282L900 318L900 318L900 353L900 353L900 388L900 388L900 424L900 424L900 459L900 459L900 494L900 494L900 529L900 529L900 565L900 565L900 600L900 600Z" fill="#776ab3"></path><path d="M280 600L278 600L278 565L233 565L233 529L278 529L278 494L301 494L301 459L291 459L291 424L254 424L254 388L258 388L258 353L223 353L223 318L276 318L276 282L219 282L219 247L275 247L275 212L258 212L258 176L231 176L231 141L226 141L226 106L285 106L285 71L259 71L259 35L317 35L317 0L900 0L900 35L900 35L900 71L900 71L900 106L900 106L900 141L900 141L900 176L900 176L900 212L900 212L900 247L900 247L900 282L900 282L900 318L900 318L900 353L900 353L900 388L900 388L900 424L900 424L900 459L900 459L900 494L900 494L900 529L900 529L900 565L900 565L900 600L900 600Z" fill="#857abe"></path><path d="M373 600L318 600L318 565L310 565L310 529L382 529L382 494L385 494L385 459L342 459L342 424L323 424L323 388L329 388L329 353L381 353L381 318L392 318L392 282L365 282L365 247L414 247L414 212L412 212L412 176L350 176L350 141L370 141L370 106L339 106L339 71L336 71L336 35L312 35L312 0L900 0L900 35L900 35L900 71L900 71L900 106L900 106L900 141L900 141L900 176L900 176L900 212L900 212L900 247L900 247L900 282L900 282L900 318L900 318L900 353L900 353L900 388L900 388L900 424L900 424L900 459L900 459L900 494L900 494L900 529L900 529L900 565L900 565L900 600L900 600Z" fill="#938ac9"></path><path d="M492 600L479 600L479 565L464 565L464 529L434 529L434 494L446 494L446 459L467 459L467 424L453 424L453 388L470 388L470 353L435 353L435 318L411 318L411 282L467 282L467 247L426 247L426 212L476 212L476 176L499 176L499 141L504 141L504 106L487 106L487 71L432 71L432 35L484 35L484 0L900 0L900 35L900 35L900 71L900 71L900 106L900 106L900 141L900 141L900 176L900 176L900 212L900 212L900 247L900 247L900 282L900 282L900 318L900 318L900 353L900 353L900 388L900 388L900 424L900 424L900 459L900 459L900 494L900 494L900 529L900 529L900 565L900 565L900 600L900 600Z" fill="#a29bd4"></path><path d="M514 600L575 600L575 565L588 565L588 529L523 529L523 494L595 494L595 459L544 459L544 424L492 424L492 388L563 388L563 353L498 353L498 318L577 318L577 282L587 282L587 247L559 247L559 212L548 212L548 176L488 176L488 141L537 141L537 106L550 106L550 71L541 71L541 35L517 35L517 0L900 0L900 35L900 35L900 71L900 71L900 106L900 106L900 141L900 141L900 176L900 176L900 212L900 212L900 247L900 247L900 282L900 282L900 318L900 318L900 353L900 353L900 388L900 388L900 424L900 424L900 459L900 459L900 494L900 494L900 529L900 529L900 565L900 565L900 600L900 600Z" fill="#b1abde"></path><path d="M580 600L582 600L582 565L670 565L670 529L682 529L682 494L662 494L662 459L604 459L604 424L609 424L609 388L594 388L594 353L632 353L632 318L685 318L685 282L642 282L642 247L660 247L660 212L629 212L629 176L591 176L591 141L577 141L577 106L675 106L675 71L668 71L668 35L605 35L605 0L900 0L900 35L900 35L900 71L900 71L900 106L900 106L900 141L900 141L900 176L900 176L900 212L900 212L900 247L900 247L900 282L900 282L900 318L900 318L900 353L900 353L900 388L900 388L900 424L900 424L900 459L900 459L900 494L900 494L900 529L900 529L900 565L900 565L900 600L900 600Z" fill="#c0bce9"></path><path d="M683 600L735 600L735 565L767 565L767 529L699 529L699 494L754 494L754 459L735 459L735 424L750 424L750 388L693 388L693 353L772 353L772 318L698 318L698 282L711 282L711 247L699 247L699 212L729 212L729 176L749 176L749 141L713 141L713 106L695 106L695 71L730 71L730 35L721 35L721 0L900 0L900 35L900 35L900 71L900 71L900 106L900 106L900 141L900 141L900 176L900 176L900 212L900 212L900 247L900 247L900 282L900 282L900 318L900 318L900 353L900 353L900 388L900 388L900 424L900 424L900 459L900 459L900 494L900 494L900 529L900 529L900 565L900 565L900 600L900 600Z" fill="#d0cef4"></path><path d="M769 600L757 600L757 565L801 565L801 529L854 529L854 494L790 494L790 459L827 459L827 424L793 424L793 388L788 388L788 353L840 353L840 318L839 318L839 282L760 282L760 247L845 247L845 212L810 212L810 176L759 176L759 141L796 141L796 106L805 106L805 71L824 71L824 35L842 35L842 0L900 0L900 35L900 35L900 71L900 71L900 106L900 106L900 141L900 141L900 176L900 176L900 212L900 212L900 247L900 247L900 282L900 282L900 318L900 318L900 353L900 353L900 388L900 388L900 424L900 424L900 459L900 459L900 494L900 494L900 529L900 529L900 565L900 565L900 600L900 600Z" fill="#e0dffe"></path></svg>